<?xml version="1.0" encoding="UTF-8"?>
<svg version="1.1" xmlns="http://www.w3.org/2000/svg" width="300" height="300">
<path d="M0 0 C2.12085448 0.00113125 4.24171051 0.00048921 6.36256409 -0.00177002 C12.0618706 -0.00290726 17.76083327 0.02044005 23.4600606 0.04852581 C29.4377415 0.07370625 35.4154322 0.07589449 41.39315796 0.08062744 C52.68678565 0.09300865 63.98025654 0.12576397 75.27381551 0.1660254 C88.14216422 0.21089502 101.01052083 0.2327682 113.87892842 0.25280714 C140.32611047 0.29450135 166.77315383 0.36475807 193.22021484 0.45410156 C193.29038973 28.24481128 193.34324456 56.03550766 193.37565136 83.82628822 C193.39110036 96.73090202 193.41215225 109.63546067 193.4465332 122.54003906 C193.4764958 133.79161886 193.49580414 145.04315869 193.50248033 156.29477727 C193.50638096 162.24882097 193.51550695 168.20275039 193.53740501 174.15675735 C193.55787858 179.76930839 193.56402676 185.38169885 193.55953789 190.99428368 C193.56035824 193.04603513 193.5662587 195.09779236 193.57783127 197.14951134 C193.73658199 226.76573413 185.13378766 251.28313092 164.22021484 272.45410156 C163.36556641 273.41703125 163.36556641 273.41703125 162.49365234 274.39941406 C148.50205717 289.82604464 125.54379618 299.19698736 105.07327271 300.6824646 C96.96440517 301.03179578 88.85189815 301.02252223 80.73711014 300.99140358 C77.19818245 300.98110364 73.65929115 300.9907154 70.12036133 300.99694824 C64.18319116 301.00417621 58.24622158 300.99476603 52.30908203 300.97558594 C45.49586244 300.95382645 38.68312207 300.96088131 31.86991405 300.98289156 C25.96524368 301.00118557 20.06071551 301.00353635 14.15602589 300.99313688 C10.65348805 300.98697795 7.15117359 300.98585134 3.64865112 300.99928284 C-28.69576725 301.10615641 -53.80927701 295.36468928 -77.77978516 272.45410156 C-78.45525391 271.85339844 -79.13072266 271.25269531 -79.82666016 270.63378906 C-96.58576183 255.14837912 -106.18211426 231.48151348 -107.15258789 208.9543457 C-107.33794719 201.96037802 -107.34391484 194.96682812 -107.31708717 187.97099686 C-107.30678723 184.43206917 -107.31639899 180.89317787 -107.32263184 177.35424805 C-107.3298598 171.41707788 -107.32044962 165.48010829 -107.30126953 159.54296875 C-107.27951005 152.72974916 -107.2865649 145.91700879 -107.30857515 139.10380077 C-107.32686916 133.1991304 -107.32921995 127.29460223 -107.31882048 121.38991261 C-107.31266154 117.88737477 -107.31153493 114.38506031 -107.32496643 110.88253784 C-107.43184001 78.53811947 -101.69037287 53.42460971 -78.77978516 29.45410156 C-78.17908203 28.77863281 -77.57837891 28.10316406 -76.95947266 27.40722656 C-56.80882062 5.59916159 -28.38424493 -0.21508318 0 0 Z " fill="#46C425" transform="translate(106.77978515625,-0.4541015625)"/>
<path d="M0 0 C3.31025764 2.2061466 5.94831183 4.94477159 8.69750977 7.80517578 C9.51502716 8.62313126 10.33254456 9.44108673 11.17483521 10.28382874 C13.86629887 12.98594178 16.52841963 15.71515523 19.19140625 18.4453125 C21.06329558 20.3346778 22.93674874 22.22234814 24.81248474 24.10787964 C29.24214667 28.56752181 33.65146379 33.04671068 38.05335706 37.5337466 C44.49599349 44.09905919 50.97041953 50.63290181 57.44287777 57.16879082 C58.40301453 58.13845715 59.36313108 59.1081435 60.32322693 60.07785034 C60.79258492 60.55186212 61.26194291 61.02587391 61.74552387 61.51424968 C64.95859633 64.76068054 68.16324807 68.01527298 71.36488342 71.27297974 C72.22122879 72.14251785 73.07757416 73.01205597 73.95986938 73.90794373 C75.54563138 75.51840158 77.12933012 77.13089519 78.71040344 78.74595642 C82.75167349 82.8449483 86.89332425 86.73832668 91.25685978 90.49248123 C93.31510932 92.27251578 95.28142823 94.12859129 97.2253418 96.0324707 C97.94936691 96.74043289 98.67339203 97.44839508 99.4193573 98.17781067 C102.66314896 101.37622793 105.90423492 104.57726166 109.13696289 107.78686523 C110.83735601 109.47065645 112.54310263 111.14905849 114.25415039 112.82202148 C116.74823016 115.26106543 119.22520768 117.71640216 121.69921875 120.17578125 C122.45764572 120.91153885 123.21607269 121.64729645 123.9974823 122.40534973 C132.92584144 131.36931938 136.27637285 140.39183494 136.3671875 152.86328125 C136.19204691 156.36996782 135.72083599 158.57569135 133.375 161.3125 C131.92386069 162.55015161 130.46421381 163.77784423 129 165 C128.00485407 166.10545126 127.02563121 167.22534642 126.05859375 168.35546875 C118.20543171 177.32999543 118.20543171 177.32999543 112.9140625 178.9375 C109.77309864 179.003452 107.07274171 178.64200517 104 178 C102.98808594 177.86722656 101.97617188 177.73445312 100.93359375 177.59765625 C95.3526566 176.62117044 91.55893974 175.02434567 87.41519165 171.13645935 C86.54901844 170.32728498 85.68284523 169.51811062 84.79042435 168.68441582 C79.65260888 163.74178653 74.54991434 158.76819008 69.48193359 153.75415039 C68.25892131 152.54726499 67.0357833 151.34050699 65.81253052 150.13386536 C54.7418879 139.20669521 43.704693 128.24556145 32.67590904 117.27616215 C24.53573567 109.18068961 16.37957957 101.10203554 8.20225275 93.04409033 C2.43523973 87.35844505 -3.3125624 81.65381887 -9.04661691 75.93493837 C-12.46578763 72.52592463 -15.89296688 69.12598176 -19.34135818 65.74650764 C-22.57927581 62.57262049 -25.79276398 59.37590333 -28.98915482 56.16021538 C-30.16403666 54.98648614 -31.34748618 53.82125988 -32.54003143 52.66548157 C-42.65836351 42.84321725 -42.65836351 42.84321725 -42.77510071 36.38796997 C-42.37293562 32.77803667 -41.58909181 30.27620162 -39.12890625 27.51953125 C-38.48840332 26.78686035 -37.84790039 26.05418945 -37.18798828 25.29931641 C-36.46595215 24.54054199 -35.74391602 23.78176758 -35 23 C-33.83380127 21.75549072 -33.83380127 21.75549072 -32.64404297 20.48583984 C-30.11311594 17.84579975 -27.53505536 15.26191456 -24.9375 12.6875 C-24.06544922 11.80771484 -23.19339844 10.92792969 -22.29492188 10.02148438 C-19.90167688 7.63548615 -17.47602464 5.29974866 -15 3 C-14.18813232 2.24323975 -14.18813232 2.24323975 -13.35986328 1.47119141 C-9.16385281 -1.89861666 -4.89203616 -1.49794676 0 0 Z " fill="#EDEDED" transform="translate(101,58)"/>
<path d="M0 0 C3.47859389 3.47723978 6.95402304 6.95761188 10.42700195 10.44046021 C11.51453036 11.53092047 12.60206528 12.62137424 13.68960571 13.71182251 C14.26485615 14.28862385 14.84010658 14.86542519 15.43278885 15.45970535 C28.68993145 28.7522527 41.9528266 42.03904794 55.21897888 55.32260323 C62.88535678 62.99930938 70.54983536 70.67789445 78.20996094 78.36083984 C84.90179165 85.07259529 91.59712251 91.78083581 98.29669094 98.48486793 C101.84007976 102.03086349 105.38168776 105.57859739 108.9190979 109.13055801 C112.24392944 112.46895794 115.57341736 115.80264149 118.90654373 119.13275909 C120.12852532 120.35529096 121.34879355 121.57953821 122.56721115 122.8056221 C124.2312155 124.47958211 125.90128444 126.14725105 127.57299805 127.81350708 C128.05306462 128.29939934 128.5331312 128.7852916 129.02774525 129.28590786 C134.86395579 135.07078646 140.05624332 136.9031633 148 138 C148.95519531 138.17917969 149.91039062 138.35835937 150.89453125 138.54296875 C154.92960221 138.99248517 158.22277356 139.26276616 161.66992188 136.81347656 C164.54111219 134.27587541 167.08525076 131.50971966 169.6015625 128.625 C170.39304688 127.75875 171.18453125 126.8925 172 126 C172.66 126 173.32 126 174 126 C174 126.99 174 127.98 174 129 C174.99 129.33 175.98 129.66 177 130 C176.07767578 130.90492188 176.07767578 130.90492188 175.13671875 131.828125 C174.32847656 132.62734375 173.52023438 133.4265625 172.6875 134.25 C171.48673828 135.43335938 171.48673828 135.43335938 170.26171875 136.640625 C168.30809491 138.6786022 166.68695445 140.74761206 165 143 C163.35296196 144.55734785 161.63230306 145.97087396 159.875 147.40234375 C157.97571216 148.95728723 157.97571216 148.95728723 156.375 150.75390625 C153.88748857 153.33111161 152.17490163 154.87711013 148.53515625 155.2578125 C145.62105115 155.04876622 142.86440079 154.57212238 140 154 C139.02546875 153.87753906 138.0509375 153.75507813 137.046875 153.62890625 C131.06315927 152.61856681 127.26009445 150.76210836 122.85546875 146.5859375 C122.3568634 146.11571167 121.85825806 145.64548584 121.34454346 145.16101074 C119.54902582 143.45466629 117.77318737 141.72953925 116 140 C115.27861847 139.29796448 114.55723694 138.59592896 113.81399536 137.87261963 C108.79849142 132.97881729 103.82001552 128.04897572 98.859375 123.09960938 C96.22057265 120.47068278 93.57129159 117.85259905 90.921875 115.234375 C89.24413897 113.56315499 87.56703161 111.89130356 85.890625 110.21875 C85.09706604 109.43753784 84.30350708 108.65632568 83.48590088 107.85144043 C82.7638446 107.12638306 82.04178833 106.40132568 81.29785156 105.65429688 C80.33954437 104.70145813 80.33954437 104.70145813 79.36187744 103.72937012 C78 102 78 102 78 99 C77.34 99 76.68 99 76 99 C76 98.34 76 97.68 76 97 C75.34 97 74.68 97 74 97 C72.44921875 95.390625 72.44921875 95.390625 70.6875 93.25 C68.69441586 90.89939355 66.91352052 88.93081642 64.5 87 C62.21922931 85.17538345 60.56561097 83.40477322 58.6875 81.1875 C56.28454783 78.36754963 53.82914039 75.89136238 51 73.5 C47.57504035 70.59537076 44.694297 67.46675332 41.7890625 64.05078125 C38.0026326 59.7104413 33.98125871 55.54634826 29.4375 52 C27.26994852 50.22149622 25.65404993 48.50745157 23.84765625 46.3828125 C20.07359148 42.02831142 16.08504167 37.93656442 12 33.875 C11.32710937 33.19824219 10.65421875 32.52148438 9.9609375 31.82421875 C6.2717708 28.14217399 2.53158617 24.66559171 -1.5546875 21.42626953 C-4.32242356 18.69500027 -4.96995741 16.41308562 -5.25 12.5625 C-5.01343181 9.19140325 -4.57118636 6.96779646 -3 4 C-2.34 3.67 -1.68 3.34 -1 3 C-0.67 2.01 -0.34 1.02 0 0 Z " fill="#207C1A" transform="translate(57,97)"/>
<path d="M0 0 C2.73353178 1.67433162 4.83024106 3.77383923 7.0390625 6.08203125 C7.6501889 6.69261887 8.26131531 7.30320648 8.89096069 7.93229675 C10.16921558 9.21821194 11.43773631 10.51387018 12.69677734 11.81860352 C14.63166569 13.81939272 16.59941622 15.78281714 18.57421875 17.74414062 C19.81457815 19.00055597 21.05293429 20.25895281 22.2890625 21.51953125 C22.87845612 22.10821487 23.46784973 22.6968985 24.07510376 23.30342102 C25.68603516 24.99145508 25.68603516 24.99145508 28 28 C27.8321228 30.12553406 27.8321228 30.12553406 27 32 C26.01 32.33 25.02 32.66 24 33 C23.29008223 34.31081615 22.62735258 35.64772379 22 37 C20.02782391 39.41749472 17.81922258 41.59652852 15.625 43.8125 C15.0475 44.42287109 14.47 45.03324219 13.875 45.66210938 C13.31039062 46.23380859 12.74578125 46.80550781 12.1640625 47.39453125 C11.65311035 47.91893799 11.1421582 48.44334473 10.61572266 48.98364258 C9 50 9 50 7.098526 49.73777771 C4.72975127 48.90498879 3.58495106 47.97057634 1.80786133 46.21191406 C1.21076859 45.62750549 0.61367584 45.04309692 -0.00151062 44.440979 C-0.6339418 43.80561218 -1.26637299 43.17024536 -1.91796875 42.515625 C-2.57581863 41.86301697 -3.23366852 41.21040894 -3.91145325 40.5380249 C-5.29948367 39.1564143 -6.6836498 37.77091213 -8.06420898 36.38183594 C-10.17791946 34.2596191 -12.30958645 32.15670858 -14.44335938 30.0546875 C-15.79019391 28.70946515 -17.13593453 27.3631465 -18.48046875 26.015625 C-19.11897263 25.3883551 -19.7574765 24.76108521 -20.41532898 24.11480713 C-22.9493248 21.54035891 -24.75796201 19.64469497 -26.03857422 16.23364258 C-25.98627089 13.20501479 -24.57430898 11.90339125 -22.47070312 9.84570312 C-21.96474609 9.38099609 -21.45878906 8.91628906 -20.9375 8.4375 C-20.21916992 7.73463867 -20.21916992 7.73463867 -19.48632812 7.01757812 C-18.03084424 5.62444428 -16.53321998 4.30673851 -15 3 C-14.07316406 2.20722656 -13.14632812 1.41445313 -12.19140625 0.59765625 C-7.84637123 -1.5775204 -4.63798554 -1.29912932 0 0 Z " fill="#D6D6D6" transform="translate(101,58)"/>
<path d="M0 0 C18.33333333 18.33333333 36.66666667 36.66666667 55 55 C54.34 55.66 53.68 56.32 53 57 C51.02 55.02 49.04 53.04 47 51 C46.01 51.33 45.02 51.66 44 52 C44 52.66 44 53.32 44 54 C43.34 54 42.68 54 42 54 C42 54.66 42 55.32 42 56 C40.66666667 57.33333333 39.33333333 58.66666667 38 60 C36.30710619 58.50609009 34.62099368 57.00449502 32.9375 55.5 C31.52791016 54.24703125 31.52791016 54.24703125 30.08984375 52.96875 C27.10884163 50.20335798 24.49964856 47.17592552 21.84985352 44.09667969 C18.71447362 40.54294568 15.35959013 37.21528214 12 33.875 C11.32710937 33.19824219 10.65421875 32.52148438 9.9609375 31.82421875 C6.2717708 28.14217399 2.53158617 24.66559171 -1.5546875 21.42626953 C-4.32242356 18.69500027 -4.96995741 16.41308562 -5.25 12.5625 C-5.01343181 9.19140325 -4.57118636 6.96779646 -3 4 C-2.34 3.67 -1.68 3.34 -1 3 C-0.67 2.01 -0.34 1.02 0 0 Z " fill="#398916" transform="translate(57,97)"/>
<path d="M0 0 C1.89320987 0.02013362 3.78644087 0.03837203 5.6796875 0.0546875 C10.24532961 0.09805271 14.80991946 0.16668392 19.375 0.25 C19.045 0.91 18.715 1.57 18.375 2.25 C16.74425537 2.26401855 16.74425537 2.26401855 15.08056641 2.27832031 C10.95372054 2.31891997 6.82756699 2.38485063 2.70117188 2.45751953 C0.9327093 2.48533158 -0.8358684 2.50673835 -2.60449219 2.52099609 C-19.46882824 2.66488975 -35.29434638 4.72723292 -50.625 12.25 C-51.55699219 12.70246094 -52.48898438 13.15492187 -53.44921875 13.62109375 C-74.65962345 24.53690872 -91.91244478 44.39463975 -99.24609375 67.1796875 C-101.99112364 76.40155261 -103.73498258 85.31578042 -103.94140625 94.9296875 C-103.96218735 95.74245148 -103.98296844 96.55521545 -104.00437927 97.39260864 C-104.06937579 99.96999257 -104.12852593 102.54747194 -104.1875 105.125 C-104.23073277 106.88021791 -104.27434852 108.63542643 -104.31835938 110.390625 C-104.42500549 114.67698738 -104.52641114 118.96344504 -104.625 123.25 C-105.285 123.25 -105.945 123.25 -106.625 123.25 C-106.72572847 118.16786138 -106.79732014 113.08633416 -106.84472656 108.00341797 C-106.86453887 106.28326265 -106.89159668 104.56317176 -106.92675781 102.84326172 C-107.50207781 73.92497102 -98.77244924 50.32953764 -78.625 29.25 C-78.02429688 28.57453125 -77.42359375 27.8990625 -76.8046875 27.203125 C-56.71494145 5.4609756 -28.33316604 -0.53325916 0 0 Z " fill="#83E61C" transform="translate(106.625,-0.24999999999999997)"/>
<path d="M0 0 C0.66386719 0.6703125 1.32773437 1.340625 2.01171875 2.03125 C4.23127026 4.25471606 6.49319804 6.42852692 8.76953125 8.59375 C10.11740969 9.89560332 11.46506166 11.19769117 12.8125 12.5 C13.85180664 13.47646484 13.85180664 13.47646484 14.91210938 14.47265625 C15.56630859 15.11074219 16.22050781 15.74882813 16.89453125 16.40625 C17.49112549 16.97666016 18.08771973 17.54707031 18.70239258 18.13476562 C20.40532536 20.58263138 20.38836648 22.07848568 20 25 C18.33333333 26.66666667 16.66666667 28.33333333 15 30 C14.34 29.67 13.68 29.34 13 29 C13 29.66 13 30.32 13 31 C12.01 31.33 11.02 31.66 10 32 C7.86823936 30.09042286 5.7446755 28.17291237 3.625 26.25 C3.02171875 25.71117188 2.4184375 25.17234375 1.796875 24.6171875 C0.92675781 23.82441406 0.92675781 23.82441406 0.0390625 23.015625 C-0.49509277 22.53383789 -1.02924805 22.05205078 -1.57958984 21.55566406 C-4.21710451 18.6670007 -4.96615262 16.46540151 -5.25 12.5625 C-5.01343181 9.19140325 -4.57118636 6.96779646 -3 4 C-2.34 3.67 -1.68 3.34 -1 3 C-0.67 2.01 -0.34 1.02 0 0 Z " fill="#478F14" transform="translate(57,97)"/>
<path d="M0 0 C-0.99 0.4640625 -0.99 0.4640625 -2 0.9375 C-4.20763507 2.77427786 -4.20763507 2.77427786 -4.16015625 5.09765625 C-4.09575997 6.68180482 -3.99238302 8.26491254 -3.84765625 9.84375 C-4 12 -4 12 -5.08984375 13.79296875 C-7.96165635 15.60767242 -10.16540645 15.1316897 -13.5 14.8125 C-14.6446875 14.71582031 -15.789375 14.61914062 -16.96875 14.51953125 C-20 14 -20 14 -23 12 C-22.68033924 6.72559742 -19.60963971 3.56176651 -16 0 C-11.34755986 -2.32622007 -4.9262419 -0.98524838 0 0 Z " fill="#1C7719" transform="translate(239,243)"/>
<path d="M0 0 C0.8971875 0.309375 0.8971875 0.309375 1.8125 0.625 C3.11927037 5.52538887 3.12968286 10.58738984 2.8125 15.625 C1.8125 16.625 1.8125 16.625 -0.76953125 16.7578125 C-1.83558594 16.75523437 -2.90164062 16.75265625 -4 16.75 C-5.58748047 16.75386719 -5.58748047 16.75386719 -7.20703125 16.7578125 C-9.72439017 16.64563661 -11.79173255 16.3559121 -14.1875 15.625 C-14.60215623 12.22962656 -14.46840885 10.98482245 -12.32421875 8.23828125 C-11.51597656 7.47902344 -10.70773438 6.71976563 -9.875 5.9375 C-9.07449219 5.17050781 -8.27398437 4.40351563 -7.44921875 3.61328125 C-2.79415132 -0.47899737 -2.79415132 -0.47899737 0 0 Z " fill="#F6FAF6" transform="translate(238.1875,225.375)"/>
<path d="M0 0 C0.72574219 0.72832031 1.45148437 1.45664062 2.19921875 2.20703125 C15.8556409 15.82536017 29.63445832 24.99212333 48 31 C48 31.66 48 32.32 48 33 C31.53676892 30.83640317 17.64256281 20.1471346 6 9 C5.35546875 8.40703125 4.7109375 7.8140625 4.046875 7.203125 C2.63254615 5.86810431 1.30485421 4.44220728 0 3 C0 2.01 0 1.02 0 0 Z " fill="#36C329" transform="translate(23,263)"/>
<path d="M0 0 C0.66 0.33 1.32 0.66 2 1 C0.15525221 2.92653463 -1.69993406 4.84081442 -3.5625 6.75 C-4.07619141 7.28882813 -4.58988281 7.82765625 -5.11914062 8.3828125 C-8.77508091 12.1068759 -12.36636471 14.59261319 -17 17 C-15.50228899 13.24317182 -13.38023683 11.4797895 -10.1875 9.0625 C-6.51854178 6.22184494 -3.17044293 3.38180579 0 0 Z " fill="#2EAB26" transform="translate(274,266)"/>
<path d="M0 0 C0.66 0.66 1.32 1.32 2 2 C-1.66666667 5.66666667 -5.33333333 9.33333333 -9 13 C-8.68033924 7.72559742 -5.60963971 4.56176651 -2 1 C-1.34 0.67 -0.68 0.34 0 0 Z " fill="#20831D" transform="translate(225,242)"/>
<path d="M0 0 C3.7952131 1.49097658 5.61042731 3.75700849 8 7 C5 7 5 7 2.3125 4.625 C0 2 0 2 0 0 Z " fill="#2F8518" transform="translate(104,146)"/>
<path d="M0 0 C0.66 0 1.32 0 2 0 C0.87548273 2.9719385 -0.22293791 5.33440687 -2 8 C-2.66 7.67 -3.32 7.34 -4 7 C-2.68 4.69 -1.36 2.38 0 0 Z " fill="#30AC25" transform="translate(288,245)"/>
</svg>
