<?xml version="1.0" encoding="UTF-8"?>
<!DOCTYPE svg PUBLIC "-//W3C//DTD SVG 1.1//EN" "http://www.w3.org/Graphics/SVG/1.1/DTD/svg11.dtd">
<!-- Creator: CorelDRAW -->
<svg xmlns="http://www.w3.org/2000/svg" xml:space="preserve" width="210mm" height="297mm" version="1.1" style="shape-rendering:geometricPrecision; text-rendering:geometricPrecision; image-rendering:optimizeQuality; fill-rule:evenodd; clip-rule:evenodd"
viewBox="0 0 21000 29700"
 xmlns:xlink="http://www.w3.org/1999/xlink"
 xmlns:xodm="http://www.corel.com/coreldraw/odm/2003">
 <defs>
  <style type="text/css">
   <![CDATA[
    .fil0 {fill:#ffffff}
   ]]>
  </style>
 </defs>
 <g id="Layer_x0020_1">
  <metadata id="CorelCorpID_0Corel-Layer"/>
  <g id="_2173175053056">
   <g>
   <g opacity="0.2">
    <path class="fil0" d="M14587.38 12776.79c0,212.49 -208.63,386.35 -463.62,386.35l-4651.7 0c-255,0 -463.63,-173.86 -463.63,-386.35 0,-212.5 208.63,-386.36 463.63,-386.36l4651.7 0c254.99,0 463.62,173.86 463.62,386.36m-7788.88 1468.13c0,212.5 -208.63,386.38 -463.62,386.38l-525.48 0c-254.96,0 -463.59,-173.88 -463.59,-386.38 0,-212.46 208.63,-386.36 463.59,-386.36l525.48 0c254.99,0 463.62,173.9 463.62,386.36m9133.39 -1468.13c0,212.49 -173.85,386.35 -386.35,386.35 -212.49,0 -386.35,-173.86 -386.35,-386.35 0,-212.5 173.86,-386.36 386.35,-386.36 212.5,0 386.35,173.86 386.35,386.36m2426.3 3013.55c0,212.5 -208.63,386.36 -463.59,386.36l-525.48 0c-254.99,0 -463.62,-173.86 -463.62,-386.36 0,-212.49 208.63,-386.35 463.62,-386.35l525.48 0c254.96,0 463.59,173.86 463.59,386.35z"/>
    <path class="fil0" d="M19192.72 18494.83l-3708.99 0c-255,0 -463.63,-173.88 -463.63,-386.38 0,-212.46 208.63,-386.36 463.63,-386.36l200.87 0c255.03,0 463.66,-173.82 463.66,-386.32 0,-212.49 -208.63,-386.35 -463.66,-386.35l-2519.02 0c-254.97,0 -463.6,-173.86 -463.6,-386.36 0,-212.49 208.63,-386.38 463.6,-386.38l3029.04 0c255,0 463.59,-173.85 463.59,-386.35 0,-212.5 -208.59,-386.33 -463.59,-386.33l-3925.35 0c-254.99,0 -463.62,-173.86 -463.62,-386.35 0,-212.49 208.63,-386.35 463.62,-386.35l3245.37 0c255,0 463.63,-173.89 463.63,-386.39 0,-212.47 -208.63,-386.35 -463.63,-386.35l-7881.65 0c-254.96,0 -463.59,173.88 -463.59,386.35 0,212.5 208.63,386.39 463.59,386.39l2951.74 0c255.03,0 463.66,173.86 463.66,386.35 0,212.49 -208.63,386.35 -463.66,386.35l-1112.66 0c-255,0 -463.63,173.83 -463.63,386.33 0,212.5 208.63,386.35 463.63,386.35l-15.48 0c255.01,0 463.64,173.89 463.64,386.38 0,212.5 -208.63,386.36 -463.64,386.36l-3508.07 0c-254.99,0 -463.66,173.86 -463.66,386.35 0,212.5 208.67,386.32 463.66,386.32l6073.48 0c255,0 463.63,173.9 463.63,386.36 0,212.5 -208.63,386.38 -463.63,386.38l-710.89 0c-255,0 -463.63,173.86 -463.63,386.36 0,212.5 208.63,386.36 463.63,386.36l7881.61 0c254.98,0 463.61,-173.86 463.61,-386.36 0,-212.5 -208.63,-386.36 -463.61,-386.36z"/>
   </g>
   </g>
  </g>
 </g>
</svg>
