<?xml version="1.0" encoding="UTF-8"?>
<!DOCTYPE svg PUBLIC "-//W3C//DTD SVG 1.1//EN" "http://www.w3.org/Graphics/SVG/1.1/DTD/svg11.dtd">
<!-- Creator: CorelDRAW -->
<svg xmlns="http://www.w3.org/2000/svg" xml:space="preserve" width="210mm" height="297mm" version="1.1" style="shape-rendering:geometricPrecision; text-rendering:geometricPrecision; image-rendering:optimizeQuality; fill-rule:evenodd; clip-rule:evenodd"
viewBox="0 0 21000 29700"
 xmlns:xlink="http://www.w3.org/1999/xlink"
 xmlns:xodm="http://www.corel.com/coreldraw/odm/2003">
 <defs>
  <style type="text/css">
   <![CDATA[
    .str0 {stroke:#606060;stroke-width:70.56;stroke-miterlimit:22.9256}
    .fil1 {fill:none}
    .fil0 {fill:#090022}
   ]]>
  </style>
 </defs>
 <g id="Layer_x0020_1">
  <metadata id="CorelCorpID_0Corel-Layer"/>
  <g id="_2173646318848">
   <g>
    <g>
     <path class="fil0" d="M5247.58 16189.2c0,-193.72 -190.19,-352.23 -422.65,-352.23l-479.03 0c-232.43,0 -422.63,158.51 -422.63,352.23 0,193.69 190.2,352.21 422.63,352.21l479.03 0c232.46,0 422.65,-158.52 422.65,-352.21l0 0zm8326.23 1338.38c0,-193.71 -158.5,-352.21 -352.22,-352.21 -193.72,0 -352.21,158.5 -352.21,352.21 0,193.72 158.49,352.22 352.21,352.22 193.72,0 352.22,-158.5 352.22,-352.22l0 0zm2211.86 -2747.22c0,-193.72 -190.19,-352.21 -422.63,-352.21l-479.03 0c-232.45,0 -422.65,158.49 -422.65,352.21 0,193.71 190.2,352.21 422.65,352.21l479.03 0c232.44,0 422.63,-158.5 422.63,-352.21z"/>
     <path id="_1" class="fil1 str0" d="M5247.58 16189.2c0,-193.72 -190.19,-352.23 -422.65,-352.23l-479.03 0c-232.43,0 -422.63,158.51 -422.63,352.23 0,193.69 190.2,352.21 422.63,352.21l479.03 0c232.46,0 422.65,-158.52 422.65,-352.21m8326.23 1338.38c0,-193.71 -158.5,-352.21 -352.22,-352.21 -193.72,0 -352.21,158.5 -352.21,352.21 0,193.72 158.49,352.22 352.21,352.22 193.72,0 352.22,-158.5 352.22,-352.22m2211.86 -2747.22c0,-193.72 -190.19,-352.21 -422.63,-352.21l-479.03 0c-232.45,0 -422.65,158.49 -422.65,352.21 0,193.71 190.2,352.21 422.65,352.21l479.03 0c232.44,0 422.63,-158.5 422.63,-352.21z"/>
    </g>
    <g>
     <path class="fil0" d="M16546.45 12314.87l-3381.2 0c-232.46,0 -422.65,158.53 -422.65,352.25 0,193.69 190.19,352.2 422.65,352.2l183.12 0c232.48,0 422.67,158.47 422.67,352.18 0,193.72 -190.19,352.21 -422.67,352.21l-2296.41 0c-232.43,0 -422.62,158.5 -422.62,352.22 0,193.71 190.19,352.23 422.62,352.23l2761.34 0c232.46,0 422.63,158.49 422.63,352.21 0,193.71 -190.17,352.18 -422.63,352.18l-3578.44 0c-232.45,0 -422.65,158.5 -422.65,352.21 0,193.72 190.2,352.21 422.65,352.21l2958.56 0c232.46,0 422.65,158.52 422.65,352.23 0,193.69 -190.19,352.22 -422.65,352.22l-7185.1 0c-232.42,0 -422.62,-158.53 -422.62,-352.22 0,-193.71 190.2,-352.23 422.62,-352.23l2690.89 0c232.48,0 422.67,-158.49 422.67,-352.21 0,-193.71 -190.19,-352.21 -422.67,-352.21l-1014.34 0c-232.46,0 -422.65,-158.47 -422.65,-352.18 0,-193.72 190.19,-352.21 422.65,-352.21l-14.12 0c232.49,0 422.69,-158.52 422.69,-352.23 0,-193.72 -190.2,-352.22 -422.69,-352.22l-3198.03 0c-232.46,0 -422.67,-158.49 -422.67,-352.21 0,-193.71 190.21,-352.18 422.67,-352.18l5536.73 0c232.45,0 422.65,-158.51 422.65,-352.2 0,-193.72 -190.2,-352.25 -422.65,-352.25l-648.06 0c-232.46,0 -422.65,-158.49 -422.65,-352.2 0,-193.72 190.19,-352.21 422.65,-352.21l7185.06 0c232.43,0 422.62,158.49 422.62,352.21 0,193.71 -190.19,352.2 -422.62,352.2l0 0zm-4198.33 5212.71c0,-193.71 -190.19,-352.21 -422.65,-352.21l-4240.6 0c-232.46,0 -422.65,158.5 -422.65,352.21 0,193.72 190.19,352.22 422.65,352.22l4240.6 0c232.46,0 422.65,-158.5 422.65,-352.22z"/>
     <path id="_1_0" class="fil1 str0" d="M16546.45 12314.87l-3381.2 0c-232.46,0 -422.65,158.53 -422.65,352.25 0,193.69 190.19,352.2 422.65,352.2l183.12 0c232.48,0 422.67,158.47 422.67,352.18 0,193.72 -190.19,352.21 -422.67,352.21l-2296.41 0c-232.43,0 -422.62,158.5 -422.62,352.22 0,193.71 190.19,352.23 422.62,352.23l2761.34 0c232.46,0 422.63,158.49 422.63,352.21 0,193.71 -190.17,352.18 -422.63,352.18l-3578.44 0c-232.45,0 -422.65,158.5 -422.65,352.21 0,193.72 190.2,352.21 422.65,352.21l2958.56 0c232.46,0 422.65,158.52 422.65,352.23 0,193.69 -190.19,352.22 -422.65,352.22l-7185.1 0c-232.42,0 -422.62,-158.53 -422.62,-352.22 0,-193.71 190.2,-352.23 422.62,-352.23l2690.89 0c232.48,0 422.67,-158.49 422.67,-352.21 0,-193.71 -190.19,-352.21 -422.67,-352.21l-1014.34 0c-232.46,0 -422.65,-158.47 -422.65,-352.18 0,-193.72 190.19,-352.21 422.65,-352.21l-14.12 0c232.49,0 422.69,-158.52 422.69,-352.23 0,-193.72 -190.2,-352.22 -422.69,-352.22l-3198.03 0c-232.46,0 -422.67,-158.49 -422.67,-352.21 0,-193.71 190.21,-352.18 422.67,-352.18l5536.73 0c232.45,0 422.65,-158.51 422.65,-352.2 0,-193.72 -190.2,-352.25 -422.65,-352.25l-648.06 0c-232.46,0 -422.65,-158.49 -422.65,-352.2 0,-193.72 190.19,-352.21 422.65,-352.21l7185.06 0c232.43,0 422.62,158.49 422.62,352.21 0,193.71 -190.19,352.2 -422.62,352.2m-4198.33 5212.71c0,-193.71 -190.19,-352.21 -422.65,-352.21l-4240.6 0c-232.46,0 -422.65,158.5 -422.65,352.21 0,193.72 190.19,352.22 422.65,352.22l4240.6 0c232.46,0 422.65,-158.5 422.65,-352.22z"/>
    </g>
   </g>
  </g>
 </g>
</svg>
