<?xml version="1.0" encoding="UTF-8"?>
<!DOCTYPE svg PUBLIC "-//W3C//DTD SVG 1.1//EN" "http://www.w3.org/Graphics/SVG/1.1/DTD/svg11.dtd">
<!-- Creator: CorelDRAW -->
<svg xmlns="http://www.w3.org/2000/svg" xml:space="preserve" width="210mm" height="297mm" version="1.1" style="shape-rendering:geometricPrecision; text-rendering:geometricPrecision; image-rendering:optimizeQuality; fill-rule:evenodd; clip-rule:evenodd"
viewBox="0 0 21000 29700"
 xmlns:xlink="http://www.w3.org/1999/xlink"
 xmlns:xodm="http://www.corel.com/coreldraw/odm/2003">
 <defs>
  <style type="text/css">
   <![CDATA[
    .str0 {stroke:#606060;stroke-width:70.56;stroke-miterlimit:22.9256}
    .fil1 {fill:none}
    .fil0 {fill:#090022}
   ]]>
  </style>
 </defs>
 <g id="Layer_x0020_1">
  <metadata id="CorelCorpID_0Corel-Layer"/>
  <g id="_2172442540480">
   <g>
    <g>
     <path class="fil0" d="M11597.08 12382.31c0,173.43 -170.26,315.32 -378.37,315.32l-3796.33 0c-208.11,0 -378.38,-141.89 -378.38,-315.32 0,-173.41 170.27,-315.3 378.38,-315.3l3796.33 0c208.11,0 378.37,141.89 378.37,315.3l0 0zm-6356.65 1198.18c0,173.41 -170.26,315.33 -378.37,315.33l-428.84 0c-208.09,0 -378.35,-141.92 -378.35,-315.33 0,-173.41 170.26,-315.31 378.35,-315.31l428.84 0c208.11,0 378.37,141.9 378.37,315.31l0 0zm7453.93 -1198.18c0,173.43 -141.89,315.32 -315.31,315.32 -173.43,0 -315.31,-141.89 -315.31,-315.32 0,-173.41 141.88,-315.3 315.31,-315.3 173.42,0 315.31,141.89 315.31,315.3l0 0zm1980.14 2459.42c0,173.42 -170.27,315.3 -378.35,315.3l-428.85 0c-208.1,0 -378.37,-141.88 -378.37,-315.3 0,-173.42 170.27,-315.31 378.37,-315.31l428.85 0c208.08,0 378.35,141.89 378.35,315.31z"/>
     <path id="_1" class="fil1 str0" d="M11597.08 12382.31c0,173.43 -170.26,315.32 -378.37,315.32l-3796.33 0c-208.11,0 -378.38,-141.89 -378.38,-315.32 0,-173.41 170.27,-315.3 378.38,-315.3l3796.33 0c208.11,0 378.37,141.89 378.37,315.3m-6356.65 1198.18c0,173.41 -170.26,315.33 -378.37,315.33l-428.84 0c-208.09,0 -378.35,-141.92 -378.35,-315.33 0,-173.41 170.26,-315.31 378.35,-315.31l428.84 0c208.11,0 378.37,141.9 378.37,315.31m7453.93 -1198.18c0,173.43 -141.89,315.32 -315.31,315.32 -173.43,0 -315.31,-141.89 -315.31,-315.32 0,-173.41 141.88,-315.3 315.31,-315.3 173.42,0 315.31,141.89 315.31,315.3m1980.14 2459.42c0,173.42 -170.27,315.3 -378.35,315.3l-428.85 0c-208.1,0 -378.37,-141.88 -378.37,-315.3 0,-173.42 170.27,-315.31 378.37,-315.31l428.85 0c208.08,0 378.35,141.89 378.35,315.31z"/>
    </g>
    <path class="fil0 str0" d="M15355.58 17048.91l-3026.98 0c-208.1,0 -378.37,-141.91 -378.37,-315.33 0,-173.39 170.27,-315.31 378.37,-315.31l163.94 0c208.12,0 378.39,-141.86 378.39,-315.29 0,-173.42 -170.27,-315.31 -378.39,-315.31l-2055.82 0c-208.08,0 -378.35,-141.89 -378.35,-315.3 0,-173.43 170.27,-315.34 378.35,-315.34l2472.05 0c208.1,0 378.35,-141.89 378.35,-315.31 0,-173.42 -170.25,-315.28 -378.35,-315.28l-3203.55 0c-208.1,0 -378.37,-141.89 -378.37,-315.32 0,-173.42 170.27,-315.31 378.37,-315.31l2648.61 0c208.1,0 378.37,-141.91 378.37,-315.33 0,-173.4 -170.27,-315.31 -378.37,-315.31l-6432.35 0c-208.08,0 -378.35,141.91 -378.35,315.31 0,173.42 170.27,315.33 378.35,315.33l2408.97 0c208.12,0 378.39,141.89 378.39,315.31 0,173.43 -170.27,315.32 -378.39,315.32l-908.07 0c-208.11,0 -378.38,141.86 -378.38,315.28 0,173.42 170.27,315.31 378.38,315.31l-12.64 0c208.13,0 378.4,141.91 378.4,315.34 0,173.41 -170.27,315.3 -378.4,315.3l-2862.99 0c-208.11,0 -378.39,141.89 -378.39,315.31 0,173.43 170.28,315.29 378.39,315.29l4956.67 0c208.11,0 378.37,141.92 378.37,315.31 0,173.42 -170.26,315.33 -378.37,315.33l-580.16 0c-208.11,0 -378.37,141.89 -378.37,315.32 0,173.41 170.26,315.3 378.37,315.3l6432.32 0c208.08,0 378.34,-141.89 378.34,-315.3 0,-173.43 -170.26,-315.32 -378.34,-315.32z"/>
   </g>
  </g>
 </g>
</svg>
