<?xml version="1.0" encoding="UTF-8"?>
<!DOCTYPE svg PUBLIC "-//W3C//DTD SVG 1.1//EN" "http://www.w3.org/Graphics/SVG/1.1/DTD/svg11.dtd">
<!-- Creator: CorelDRAW -->
<svg xmlns="http://www.w3.org/2000/svg" xml:space="preserve" width="210mm" height="297mm" version="1.1" style="shape-rendering:geometricPrecision; text-rendering:geometricPrecision; image-rendering:optimizeQuality; fill-rule:evenodd; clip-rule:evenodd"
viewBox="0 0 21000 29700"
 xmlns:xlink="http://www.w3.org/1999/xlink"
 xmlns:xodm="http://www.corel.com/coreldraw/odm/2003">
 <defs>
  <style type="text/css">
   <![CDATA[
    .str0 {stroke:#606060;stroke-width:70.56;stroke-miterlimit:22.9256}
    .fil1 {fill:#38304C}
    .fil0 {fill:#38304C}
   ]]>
  </style>
 </defs>
 <g id="Layer_x0020_1">
  <metadata id="CorelCorpID_0Corel-Layer"/>
  <g id="_2173171249200">
   <g>
    <path class="fil0" d="M7814.88 16926.36c0,-192.06 188.52,-349.14 418.98,-349.14l4203.77 0c230.46,0 418.98,157.08 418.98,349.14 0,192.04 -188.52,349.12 -418.98,349.12l-4203.77 0c-230.46,0 -418.98,-157.08 -418.98,-349.12m7038.89 -1326.78c0,-192.06 188.52,-349.14 418.98,-349.14l474.83 0c230.46,0 418.98,157.08 418.98,349.14 0,192.05 -188.52,349.13 -418.98,349.13l-474.83 0c-230.46,0 -418.98,-157.08 -418.98,-349.13m-8253.95 1326.78c0,-192.06 157.12,-349.14 349.16,-349.14 192.03,0 349.15,157.08 349.15,349.14 0,192.04 -157.12,349.12 -349.15,349.12 -192.04,0 -349.16,-157.08 -349.16,-349.12m-2192.65 -2723.37c0,-192.07 188.52,-349.15 418.98,-349.15l474.83 0c230.47,0 418.98,157.08 418.98,349.15 0,192.02 -188.51,349.12 -418.98,349.12l-474.83 0c-230.46,0 -418.98,-157.1 -418.98,-349.12z"/>
    <path class="fil0" d="M3653.02 11758.91l3351.85 0c230.46,0 418.98,157.12 418.98,349.14 0,192.05 -188.52,349.16 -418.98,349.16l-181.57 0c-230.43,0 -419.01,157.12 -419.01,349.19 0,192.03 188.58,349.11 419.01,349.11l2276.44 0c230.45,0 418.98,157.11 418.98,349.16 0,192.03 -188.53,349.14 -418.98,349.14l-2737.32 0c-230.44,0 -418.99,157.12 -418.99,349.19 0,192.03 188.55,349.12 418.99,349.12l3547.35 0c230.46,0 418.98,157.12 418.98,349.15 0,192.02 -188.52,349.14 -418.98,349.14l-2932.87 0c-230.41,0 -418.98,157.12 -418.98,349.19 0,192 188.57,349.12 418.98,349.12l7122.72 0c230.42,0 418.94,-157.12 418.94,-349.12 0,-192.07 -188.52,-349.19 -418.94,-349.19l-2667.52 0c-230.43,0 -419.02,-157.12 -419.02,-349.14 0,-192.03 188.59,-349.15 419.02,-349.15l1005.54 0c230.46,0 418.98,-157.09 418.98,-349.12 0,-192.07 -188.52,-349.19 -418.98,-349.19l13.98 0c-230.45,0 -418.98,-157.11 -418.98,-349.14 0,-192.05 188.53,-349.16 418.98,-349.16l3170.25 0c230.46,0 418.98,-157.08 418.98,-349.11 0,-192.07 -188.52,-349.19 -418.98,-349.19l-5488.62 0c-230.44,0 -418.99,-157.11 -418.99,-349.16 0,-192.02 188.55,-349.14 418.99,-349.14l642.45 0c230.42,0 418.98,-157.08 418.98,-349.15 0,-192.04 -188.56,-349.12 -418.98,-349.12l-7122.68 0c-230.46,0 -418.98,157.08 -418.98,349.12 0,192.07 188.52,349.15 418.98,349.15z"/>
   </g>
  </g>
  <g id="_2173171248528">
   <g>
    <path class="fil1 str0" d="M-212533.97 50852.65c0,212.49 -208.63,386.35 -463.62,386.35l-4651.7 0c-255,0 -463.63,-173.86 -463.63,-386.35 0,-212.5 208.63,-386.36 463.63,-386.36l4651.7 0c254.99,0 463.62,173.86 463.62,386.36m-7788.88 1468.13c0,212.5 -208.63,386.38 -463.62,386.38l-525.48 0c-254.96,0 -463.59,-173.88 -463.59,-386.38 0,-212.46 208.63,-386.36 463.59,-386.36l525.48 0c254.99,0 463.62,173.9 463.62,386.36m9133.39 -1468.13c0,212.49 -173.85,386.35 -386.35,386.35 -212.49,0 -386.35,-173.86 -386.35,-386.35 0,-212.5 173.86,-386.36 386.35,-386.36 212.5,0 386.35,173.86 386.35,386.36m2426.3 3013.55c0,212.5 -208.63,386.36 -463.59,386.36l-525.48 0c-254.99,0 -463.62,-173.86 -463.62,-386.36 0,-212.49 208.63,-386.35 463.62,-386.35l525.48 0c254.96,0 463.59,173.86 463.59,386.35z"/>
    <path class="fil1 str0" d="M-207928.63 56570.69l-3708.99 0c-255,0 -463.63,-173.88 -463.63,-386.38 0,-212.46 208.63,-386.36 463.63,-386.36l200.87 0c255.03,0 463.66,-173.82 463.66,-386.32 0,-212.49 -208.63,-386.35 -463.66,-386.35l-2519.02 0c-254.97,0 -463.6,-173.86 -463.6,-386.36 0,-212.49 208.63,-386.38 463.6,-386.38l3029.04 0c255,0 463.59,-173.85 463.59,-386.35 0,-212.5 -208.59,-386.33 -463.59,-386.33l-3925.35 0c-254.99,0 -463.62,-173.86 -463.62,-386.35 0,-212.49 208.63,-386.35 463.62,-386.35l3245.37 0c255,0 463.63,-173.89 463.63,-386.39 0,-212.47 -208.63,-386.35 -463.63,-386.35l-7881.65 0c-254.96,0 -463.59,173.88 -463.59,386.35 0,212.5 208.63,386.39 463.59,386.39l2951.74 0c255.03,0 463.66,173.86 463.66,386.35 0,212.49 -208.63,386.35 -463.66,386.35l-1112.66 0c-255,0 -463.63,173.83 -463.63,386.33 0,212.5 208.63,386.35 463.63,386.35l-15.48 0c255.01,0 463.64,173.89 463.64,386.38 0,212.5 -208.63,386.36 -463.64,386.36l-3508.07 0c-254.99,0 -463.66,173.86 -463.66,386.35 0,212.5 208.67,386.32 463.66,386.32l6073.48 0c255,0 463.63,173.9 463.63,386.36 0,212.5 -208.63,386.38 -463.63,386.38l-710.89 0c-255,0 -463.63,173.86 -463.63,386.36 0,212.5 208.63,386.36 463.63,386.36l7881.61 0c254.98,0 463.61,-173.86 463.61,-386.36 0,-212.5 -208.63,-386.36 -463.61,-386.36z"/>
   </g>
  </g>
 </g>
</svg>
