<?xml version="1.0" encoding="UTF-8"?>
<!DOCTYPE svg PUBLIC "-//W3C//DTD SVG 1.1//EN" "http://www.w3.org/Graphics/SVG/1.1/DTD/svg11.dtd">
<!-- Creator: CorelDRAW -->
<svg xmlns="http://www.w3.org/2000/svg" xml:space="preserve" width="210mm" height="297mm" version="1.1" style="shape-rendering:geometricPrecision; text-rendering:geometricPrecision; image-rendering:optimizeQuality; fill-rule:evenodd; clip-rule:evenodd"
viewBox="0 0 21000 29700"
 xmlns:xlink="http://www.w3.org/1999/xlink"
 xmlns:xodm="http://www.corel.com/coreldraw/odm/2003">
 <defs>
  <style type="text/css">
   <![CDATA[
    .str0 {stroke:#606060;stroke-width:70.56;stroke-miterlimit:22.9256}
    .fil1 {fill:none}
    .fil0 {fill:#090022}
   ]]>
  </style>
 </defs>
 <g id="Layer_x0020_1">
  <metadata id="CorelCorpID_0Corel-Layer"/>
  <g id="_2173173905024">
   <g>
    <path class="fil0 str0" d="M4203.52 17547.35c-216.89,0 -394.39,177.48 -394.39,394.4 0,216.91 177.5,394.39 394.39,394.39 216.92,0 394.43,-177.48 394.43,-394.39 0,-216.92 -177.51,-394.4 -394.43,-394.4z"/>
    <g>
     <path class="fil0" d="M15108.53 22280.06l-3744.86 0c-260.3,0 -473.27,-177.47 -473.27,-394.39 0,-216.91 212.97,-394.39 473.27,-394.39l77 0c260.27,0 473.24,-177.45 473.24,-394.36 0,-216.92 -212.97,-394.4 -473.24,-394.4l-1851.77 0c-260.3,0 -473.27,-177.51 -473.27,-394.42 0,-216.92 212.97,-394.4 473.27,-394.4l3409.62 0c260.3,0 473.27,-177.48 473.27,-394.4 0,-216.9 -212.97,-394.36 -473.27,-394.36l-3835.56 0c-260.3,0 -473.28,-177.47 -473.28,-394.38 0,-216.92 212.98,-394.44 473.28,-394.44l1922.72 0c260.34,0 473.31,-177.47 473.31,-394.38 0,-216.92 -212.97,-394.4 -473.31,-394.4l21.64 0c-260.3,0 -473.27,-177.44 -473.27,-394.36 0,-216.92 212.97,-394.4 473.27,-394.4l2502.48 0c260.34,0 473.31,-177.5 473.31,-394.42 0,-216.92 -212.97,-394.4 -473.31,-394.4l-5659.51 0c-260.34,0 -473.31,177.48 -473.31,394.4 0,216.92 212.97,394.42 473.31,394.42l1437.47 0c260.3,0 473.27,177.48 473.27,394.4 0,216.92 -212.97,394.36 -473.27,394.36l-3764.42 0c-260.27,0 -473.24,177.48 -473.24,394.4 0,216.91 212.97,394.38 473.24,394.38l5.85 0c260.3,0 473.28,177.52 473.28,394.44 0,216.91 -212.98,394.38 -473.28,394.38l-2787.53 0c-260.3,0 -473.27,177.46 -473.27,394.36 0,216.92 212.97,394.4 473.27,394.4l5027.68 0c260.3,0 473.27,177.48 473.27,394.4 0,216.91 -212.97,394.42 -473.27,394.42l-116.28 0c-260.26,0 -473.24,177.48 -473.24,394.4 0,216.91 212.98,394.36 473.24,394.36l1891.05 0c260.3,0 473.27,177.48 473.27,394.39 0,216.92 -212.97,394.39 -473.27,394.39l-3720.02 0c-260.3,0 -473.27,177.51 -473.27,394.42 0,216.92 212.97,394.4 473.27,394.4l9184.44 0c260.27,0 473.24,-177.48 473.24,-394.4 0,-216.91 -212.97,-394.42 -473.24,-394.42l0 0zm1617 0l-374.67 0c-260.3,0 -473.27,177.51 -473.27,394.42 0,216.92 212.97,394.4 473.27,394.4l374.67 0c260.3,0 473.27,-177.48 473.27,-394.4 0,-216.91 -212.97,-394.42 -473.27,-394.42z"/>
     <path id="_1" class="fil1 str0" d="M15108.53 22280.06l-3744.86 0c-260.3,0 -473.27,-177.47 -473.27,-394.39 0,-216.91 212.97,-394.39 473.27,-394.39l77 0c260.27,0 473.24,-177.45 473.24,-394.36 0,-216.92 -212.97,-394.4 -473.24,-394.4l-1851.77 0c-260.3,0 -473.27,-177.51 -473.27,-394.42 0,-216.92 212.97,-394.4 473.27,-394.4l3409.62 0c260.3,0 473.27,-177.48 473.27,-394.4 0,-216.9 -212.97,-394.36 -473.27,-394.36l-3835.56 0c-260.3,0 -473.28,-177.47 -473.28,-394.38 0,-216.92 212.98,-394.44 473.28,-394.44l1922.72 0c260.34,0 473.31,-177.47 473.31,-394.38 0,-216.92 -212.97,-394.4 -473.31,-394.4l21.64 0c-260.3,0 -473.27,-177.44 -473.27,-394.36 0,-216.92 212.97,-394.4 473.27,-394.4l2502.48 0c260.34,0 473.31,-177.5 473.31,-394.42 0,-216.92 -212.97,-394.4 -473.31,-394.4l-5659.51 0c-260.34,0 -473.31,177.48 -473.31,394.4 0,216.92 212.97,394.42 473.31,394.42l1437.47 0c260.3,0 473.27,177.48 473.27,394.4 0,216.92 -212.97,394.36 -473.27,394.36l-3764.42 0c-260.27,0 -473.24,177.48 -473.24,394.4 0,216.91 212.97,394.38 473.24,394.38l5.85 0c260.3,0 473.28,177.52 473.28,394.44 0,216.91 -212.98,394.38 -473.28,394.38l-2787.53 0c-260.3,0 -473.27,177.46 -473.27,394.36 0,216.92 212.97,394.4 473.27,394.4l5027.68 0c260.3,0 473.27,177.48 473.27,394.4 0,216.91 -212.97,394.42 -473.27,394.42l-116.28 0c-260.26,0 -473.24,177.48 -473.24,394.4 0,216.91 212.98,394.36 473.24,394.36l1891.05 0c260.3,0 473.27,177.48 473.27,394.39 0,216.92 -212.97,394.39 -473.27,394.39l-3720.02 0c-260.3,0 -473.27,177.51 -473.27,394.42 0,216.92 212.97,394.4 473.27,394.4l9184.44 0c260.27,0 473.24,-177.48 473.24,-394.4 0,-216.91 -212.97,-394.42 -473.24,-394.42m1617 0l-374.67 0c-260.3,0 -473.27,177.51 -473.27,394.42 0,216.92 212.97,394.4 473.27,394.4l374.67 0c260.3,0 473.27,-177.48 473.27,-394.4 0,-216.91 -212.97,-394.42 -473.27,-394.42z"/>
    </g>
    <path class="fil0 str0" d="M12308.31 21096.89c0,216.92 212.97,394.4 473.27,394.4l1636.74 0c260.33,0 473.3,-177.48 473.3,-394.4 0,-216.9 -212.97,-394.38 -473.3,-394.38l-1636.74 0c-260.3,0 -473.27,177.48 -473.27,394.38z"/>
   </g>
  </g>
 </g>
</svg>
